<?xml version="1.0" standalone="no"?>
<!DOCTYPE svg PUBLIC "-//W3C//DTD SVG 20010904//EN"
 "http://www.w3.org/TR/2001/REC-SVG-20010904/DTD/svg10.dtd">
<svg version="1.0" xmlns="http://www.w3.org/2000/svg"
 width="322.000000pt" height="322.000000pt" viewBox="0 0 322.000000 322.000000"
 preserveAspectRatio="xMidYMid meet">
<metadata>
Created by potrace 1.11, written by Peter Selinger 2001-2013
</metadata>
<g transform="translate(0.000000,322.000000) scale(0.100000,-0.100000)"
fill="#000000" stroke="none">
<path d="M430 2395 c0 -437 2 -795 3 -795 2 0 183 179 402 398 223 223 399
392 402 385 3 -7 12 -13 21 -13 8 0 13 -2 10 -5 -6 -7 100 -115 113 -115 6 0
8 -3 6 -7 -4 -10 151 -162 158 -155 3 3 5 -2 5 -11 0 -9 8 -17 17 -17 9 0 14
-3 11 -6 -7 -7 28 -44 41 -44 6 0 13 -5 17 -12 5 -7 2 -8 -7 -3 -8 4 -3 -3 11
-17 14 -13 28 -23 33 -21 4 2 7 0 7 -6 0 -15 57 -71 64 -64 3 4 6 -1 6 -10 0
-9 7 -17 16 -17 8 0 13 -3 11 -7 -2 -5 8 -19 21 -33 14 -14 21 -19 17 -11 -5
9 -4 12 3 7 7 -4 12 -11 12 -17 0 -13 37 -48 44 -41 3 3 6 -2 6 -11 0 -9 7
-17 16 -17 8 0 13 -4 9 -9 -3 -5 4 -12 15 -16 11 -4 19 -9 17 -13 -2 -4 8 -18
21 -32 14 -14 21 -19 17 -11 -5 9 -4 12 3 7 7 -4 12 -13 12 -20 0 -8 8 -20 17
-27 14 -12 16 -12 8 0 -5 10 -4 12 3 7 19 -12 14 -37 -13 -58 -14 -11 -23 -23
-20 -28 3 -5 -4 -11 -14 -15 -11 -3 -23 -15 -26 -26 -4 -11 -9 -18 -13 -15 -3
4 -14 -6 -24 -21 -10 -16 -18 -24 -18 -19 0 5 -25 -17 -55 -49 -30 -32 -55
-62 -55 -66 0 -5 -3 -8 -7 -7 -5 1 -24 -12 -43 -30 -19 -18 -30 -32 -25 -32 6
0 -2 -8 -18 -18 -15 -10 -25 -21 -21 -24 3 -4 -4 -9 -15 -13 -11 -3 -23 -15
-26 -25 -3 -11 -10 -19 -15 -17 -10 2 -70 -63 -70 -76 0 -6 -3 -7 -7 -4 -3 4
-15 -5 -25 -20 -10 -16 -18 -23 -18 -18 0 6 -16 -8 -35 -29 -19 -22 -35 -43
-35 -48 0 -4 -4 -7 -9 -6 -10 3 -111 -100 -111 -114 0 -5 -3 -7 -7 -5 -9 5
-34 -18 -28 -25 2 -2 -4 -9 -15 -16 -15 -9 -22 -9 -34 3 -8 8 -19 15 -25 15
-5 0 -12 8 -16 18 -3 9 -21 28 -39 42 -19 14 -32 28 -29 33 2 4 -3 7 -12 7 -9
0 -13 4 -10 10 3 5 2 10 -2 10 -5 0 -18 7 -29 16 -10 8 -12 12 -4 8 9 -4 7 2
-5 13 -11 11 -23 19 -28 16 -4 -2 -7 3 -7 11 0 9 -6 16 -13 16 -16 0 -58 46
-50 54 4 3 -1 6 -11 6 -9 0 -14 4 -11 10 3 5 2 10 -2 10 -5 0 -18 7 -29 16
-10 8 -12 12 -4 8 9 -4 7 2 -5 13 -11 11 -23 19 -27 16 -5 -2 -8 3 -8 11 0 9
-7 16 -15 16 -8 0 -23 13 -34 30 -10 16 -21 27 -24 23 -4 -3 -7 1 -7 10 0 9
-6 17 -14 17 -8 0 -18 9 -21 20 -3 11 -12 20 -20 20 -8 0 -16 8 -20 18 -3 9
-21 28 -39 42 -19 14 -32 28 -29 33 2 4 -3 7 -12 7 -9 0 -13 5 -10 10 3 6 2
10 -2 10 -5 0 -18 7 -29 16 -10 8 -12 12 -4 8 9 -4 7 2 -5 13 -11 11 -23 19
-27 16 -5 -2 -8 3 -8 11 0 9 -6 16 -14 16 -8 0 -24 14 -36 30 -12 17 -27 30
-33 30 -10 0 -13 -175 -13 -775 l0 -775 807 0 806 0 42 36 c22 20 41 43 41 52
0 8 3 13 6 9 8 -7 34 17 34 32 0 6 6 10 12 8 7 -1 12 4 11 11 -2 6 2 12 9 12
14 0 194 182 190 193 -1 4 3 7 9 7 15 0 209 194 209 210 0 7 3 11 6 7 8 -7 34
17 34 32 0 6 6 10 13 8 6 -1 11 4 10 11 -2 6 3 12 10 12 15 0 97 85 97 100 0
6 5 8 10 5 6 -3 10 1 10 9 0 8 5 18 12 22 7 5 8 3 3 -6 -5 -9 -4 -11 3 -6 18
11 15 19 -25 62 -20 21 -33 33 -28 25 5 -10 4 -12 -3 -7 -7 4 -12 12 -12 18 0
15 -135 148 -151 148 -7 0 -10 2 -7 5 7 7 -65 83 -74 78 -4 -2 -9 6 -13 17 -4
11 -11 18 -16 15 -5 -4 -9 1 -9 9 0 9 -3 16 -7 16 -5 0 -19 10 -33 21 -14 11
-18 17 -10 13 8 -4 -4 11 -28 34 -23 23 -61 61 -84 84 -23 24 -38 36 -34 28 4
-8 -1 -4 -11 9 -25 35 -158 169 -149 151 4 -8 -2 -4 -13 10 -11 14 -21 28 -21
33 0 4 -7 7 -16 7 -8 0 -12 5 -9 10 3 6 2 10 -3 10 -6 0 -12 6 -15 14 -8 21 4
56 19 56 7 0 20 12 28 28 8 15 15 23 16 19 0 -13 30 20 30 34 0 7 3 9 7 6 7
-8 53 39 53 55 0 6 3 8 7 5 7 -8 53 39 53 55 0 6 3 9 6 5 8 -8 34 18 34 33 0
6 4 9 8 6 7 -4 20 9 58 59 9 11 12 13 8 5 -4 -9 2 -7 13 5 11 11 19 23 16 28
-2 4 0 7 6 7 15 0 62 46 54 53 -3 4 -1 7 6 7 15 0 42 26 35 33 -3 3 4 8 15 12
12 3 21 13 21 21 0 8 4 13 8 10 7 -4 20 9 58 59 9 11 12 13 9 5 -4 -8 4 -2 19
14 14 16 26 33 26 38 0 5 3 7 8 5 9 -6 82 69 75 77 -4 3 -1 6 5 6 16 0 66 52
70 73 2 9 -3 17 -10 17 -7 0 -22 14 -33 30 -11 16 -23 30 -26 30 -9 0 -619
613 -619 622 0 4 -4 8 -9 8 -5 0 -28 20 -52 45 l-44 45 -797 0 -798 0 0 -795z
m1771 -982 c13 -16 12 -17 -3 -4 -10 7 -18 15 -18 17 0 8 8 3 21 -13z m160
-160 c13 -16 12 -17 -3 -4 -17 13 -22 21 -14 21 2 0 10 -8 17 -17z m320 -320
c13 -16 12 -17 -3 -4 -17 13 -22 21 -14 21 2 0 10 -8 17 -17z m-171 -466 c0
-2 -10 -12 -22 -23 l-23 -19 19 23 c18 21 26 27 26 19z m-240 -240 c0 -2 -10
-12 -22 -23 l-23 -19 19 23 c18 21 26 27 26 19z"/>
</g>
</svg>
